<svg xmlns="http://www.w3.org/2000/svg" xmlns:xlink="http://www.w3.org/1999/xlink" width="700" zoomAndPan="magnify" viewBox="0 0 525 374.999991" height="500" preserveAspectRatio="xMidYMid meet" version="1.0"><defs><g/><clipPath id="0dc6c7ac5e"><path d="M 11 7.949219 L 514 7.949219 L 514 367 L 11 367 Z M 11 7.949219 " clip-rule="nonzero"/></clipPath><clipPath id="21cc2132a5"><rect x="0" width="277" y="0" height="375"/></clipPath></defs><rect x="-52.5" width="630" fill="#ffffff" y="-37.499999" height="449.999989" fill-opacity="1"/><rect x="-52.5" width="630" fill="#faf6ee" y="-37.499999" height="449.999989" fill-opacity="1"/><path fill="#7f2241" d="M 422.421875 333.292969 C 429.351562 333.117188 436.25 332.222656 443.160156 331.757812 C 446.660156 331.054688 465.019531 332.0625 472.910156 329.714844 C 473.753906 329.714844 474.617188 329.347656 475.253906 328.707031 C 476.277344 328.054688 476.722656 327.238281 476.421875 326.21875 C 476.390625 326.042969 476.339844 325.882812 476.261719 325.722656 C 476.261719 325.722656 476.261719 325.691406 476.261719 325.675781 C 475.878906 318.140625 476.214844 310.554688 476.355469 303.003906 C 476.40625 292.433594 475.925781 281.828125 477.15625 271.308594 C 477.457031 255.148438 476.867188 238.957031 476.675781 222.785156 C 476.179688 198.976562 476.789062 175.1875 476.867188 151.378906 C 476.277344 133.578125 475.542969 115.757812 475.382812 97.9375 C 475.128906 83.328125 474.695312 69.164062 473.625 54.492188 C 473.164062 51.632812 473.722656 48.390625 472.558594 45.710938 C 472.476562 44.527344 471.824219 43.378906 470.609375 42.949219 C 445.332031 40.664062 419.769531 41.304688 394.367188 41.253906 C 388.285156 40.886719 382.214844 41.605469 376.148438 42.070312 C 368.019531 42.484375 359.894531 41.621094 351.765625 41.71875 C 331.203125 41.574219 310.621094 41.542969 290.085938 40.328125 C 271.867188 39.402344 253.699219 36.992188 235.429688 38.652344 C 217.085938 39.976562 198.339844 38.972656 179.945312 38.363281 C 161.472656 38.015625 142.980469 38.652344 124.523438 37.742188 C 108.175781 36.433594 91.761719 37.503906 75.425781 38.621094 C 71.371094 39.324219 50.597656 37.613281 49.671875 41.144531 C 49.558594 41.558594 49.527344 41.925781 49.527344 42.246094 C 49.015625 43.492188 49.222656 44.878906 49.289062 46.203125 C 49.511719 49.429688 49.351562 52.671875 49.207031 55.898438 C 48.871094 68.832031 48.617188 81.746094 48.410156 94.679688 C 48.472656 111.8125 47.148438 128.914062 47.4375 146.03125 C 48.089844 160.863281 46.878906 175.585938 46.191406 190.515625 C 46.878906 221.523438 47.035156 252.515625 47.308594 283.539062 C 47.5 290.324219 48.25 297.0625 48.472656 303.847656 C 48.554688 309.707031 48.761719 315.550781 49.128906 321.410156 C 49.367188 323.152344 49.335938 325.835938 50.261719 327.558594 C 50.550781 332.207031 60.863281 329.234375 65.144531 329.746094 C 80.34375 330.066406 95.542969 329.746094 110.746094 330.242188 C 134.199219 329.460938 157.609375 330.480469 181.015625 331.726562 C 210.285156 331.550781 239.535156 331.023438 268.753906 331.261719 C 319.992188 330.847656 371.167969 334.617188 422.40625 333.242188 Z M 369.890625 327.257812 C 334.539062 325.804688 299.203125 325.019531 263.820312 324.589844 C 235.640625 324.734375 207.441406 324.75 179.226562 325.050781 C 164.3125 324.316406 149.433594 323.121094 134.488281 323.328125 C 114.65625 323.824219 94.824219 322.898438 74.945312 323.359375 C 69.085938 323.230469 63.226562 322.847656 57.367188 323.34375 C 56.648438 323.457031 55.851562 323.441406 55.066406 323.457031 C 54.910156 321.316406 54.890625 319.175781 54.828125 317.035156 C 54.429688 309.421875 54.828125 301.789062 54.222656 294.171875 C 53.214844 270.988281 53.933594 247.773438 53.550781 224.570312 C 53.328125 213.269531 53.105469 201.804688 52.914062 190.449219 C 53.105469 181.8125 54.253906 173.238281 54.191406 164.585938 C 54.0625 129.21875 55.277344 93.820312 55.851562 58.402344 C 56.011719 54.269531 56.28125 50.132812 56.027344 45.996094 C 55.992188 45.582031 55.992188 45.167969 55.960938 44.753906 C 59.042969 44.59375 62.476562 44.035156 64.28125 44.335938 C 80.949219 45.085938 97.636719 42.898438 114.351562 43.601562 C 147.515625 45.4375 180.761719 44.910156 213.972656 46.0625 C 234.3125 45.835938 254.6875 43.523438 275.0625 46.171875 C 322.035156 49.320312 369.121094 48.855469 416.097656 47.722656 C 427.515625 48.183594 438.945312 47.898438 450.363281 48.425781 C 456.0625 48.488281 461.9375 49.496094 467.640625 49.207031 C 468.917969 76.238281 468.835938 103.335938 469.523438 130.414062 C 470.6875 154.0625 469.652344 177.710938 469.792969 201.355469 C 469.746094 224.621094 470.769531 247.867188 470.449219 271.101562 C 469.15625 281.414062 469.792969 291.808594 469.699219 302.15625 C 469.523438 306.308594 469.746094 310.476562 469.699219 314.640625 C 469.761719 318.042969 469.394531 321.605469 469.8125 325.003906 C 461.539062 326.136719 453.109375 325.851562 444.773438 326.121094 C 419.867188 328.132812 394.863281 327.480469 369.90625 327.222656 Z M 369.890625 327.257812 " fill-opacity="1" fill-rule="nonzero"/><g clip-path="url(#0dc6c7ac5e)"><path fill="#7f2241" d="M 263.4375 366.871094 C 266.902344 366.949219 270.351562 367.0625 273.816406 366.886719 C 277.328125 366.566406 282.566406 367.238281 283.585938 362.832031 C 285.757812 357.195312 290.566406 352.804688 296.328125 351.03125 C 300.242188 350.40625 304.535156 353.28125 305.894531 356.953125 C 307.347656 359.796875 305.71875 365.050781 310.0625 365.496094 C 315.105469 365.703125 320.152344 365.785156 325.199219 365.5625 C 328.804688 365.320312 332.605469 365.449219 336.023438 364.1875 C 337.652344 363.515625 338.324219 361.96875 338.832031 360.402344 C 339.792969 357.976562 341.691406 356.15625 343.464844 354.320312 C 345.394531 352.578125 347.472656 350.582031 350.105469 350.105469 C 355.40625 349.800781 358.953125 355.023438 359.589844 359.796875 C 359.445312 364.761719 361.84375 364.730469 366.023438 364.984375 C 373.339844 365.371094 380.730469 365.816406 387.996094 364.699219 C 388.554688 364.601562 389.160156 364.492188 389.734375 364.316406 C 391.109375 364.476562 392.5625 363.867188 393.21875 362.144531 C 394.078125 359.589844 395.230469 356.96875 397.71875 355.644531 C 401.441406 353.648438 407.15625 352.59375 409.949219 356.570312 C 411.835938 359.03125 411.546875 363.628906 415.140625 364.492188 C 420.234375 364.539062 425.375 364.890625 430.5 364.90625 C 447.792969 364.9375 440.703125 364.285156 449.707031 354.335938 C 453.03125 351.175781 458.441406 348.652344 462.847656 350.949219 C 466.25 352.980469 467.046875 357.164062 468.214844 360.644531 C 468.628906 363.039062 469.984375 366.039062 472.925781 365.335938 C 475 365.210938 477.265625 365.097656 479.390625 364.9375 C 488.746094 364.265625 498.214844 363.773438 507.476562 362.222656 C 508.179688 361.984375 508.660156 361.570312 508.960938 361.074219 C 508.992188 361.058594 509.007812 361.042969 509.042969 361.011719 C 512.332031 354.910156 510.621094 345.777344 511.707031 338.878906 C 511.738281 336.722656 512.570312 332.207031 511.195312 330.273438 C 510.847656 329.523438 510.207031 328.851562 509.265625 328.421875 C 504.539062 326.011719 499.046875 323.074219 498.054688 317.339844 C 497.546875 313.414062 500.050781 307.601562 504.15625 306.578125 C 506.488281 306.257812 509.375 307.953125 510.957031 305.398438 C 512.332031 301.964844 512.027344 298.050781 512.410156 294.410156 C 512.601562 291.472656 512.699219 288.535156 512.699219 285.597656 C 512.492188 280.265625 512.953125 274.820312 512.15625 269.550781 C 511.261719 267.171875 508.308594 266.835938 506.375 265.558594 C 503.132812 263.789062 500.179688 261.359375 498.089844 258.292969 C 495.710938 253.761719 497.449219 247.882812 502.0625 245.554688 C 506.277344 242.824219 511.804688 246.71875 511.453125 239.292969 C 511.773438 234.742188 511.964844 230.160156 511.898438 225.59375 C 511.789062 221.507812 512.234375 217.226562 511.308594 213.21875 C 511.390625 212.644531 511.308594 212.023438 511.039062 211.449219 C 510.078125 209.386719 507.574219 209.050781 505.816406 207.917969 C 500.46875 204.902344 495.644531 201.230469 495.789062 194.507812 C 495.726562 187.511719 502.527344 181.589844 509.058594 180.375 C 511.914062 180.054688 513.113281 177.40625 513.191406 174.820312 C 513.6875 171.242188 513.816406 167.632812 513.878906 164.027344 C 513.925781 159.300781 514.183594 154.507812 513.351562 149.832031 C 513 146.972656 510.304688 145.96875 508.226562 144.515625 C 504.21875 142.167969 500.867188 138.621094 499.910156 133.976562 C 498.3125 128.738281 498.34375 122.796875 501.855469 118.34375 C 505.402344 113.027344 511.660156 113.9375 512.730469 110.503906 C 514.375 102.632812 513.847656 94.488281 513.609375 86.488281 C 513.273438 83.503906 513.960938 79.433594 510.988281 77.613281 C 506.582031 74.226562 501.074219 71.289062 498.808594 65.957031 C 495.40625 59.648438 499.175781 51.347656 505.753906 48.984375 C 507.238281 48.25 509.058594 48.042969 510.238281 46.828125 C 510.8125 46.171875 510.925781 45.359375 510.71875 44.625 C 511.195312 42.867188 511.148438 41 511.214844 39.179688 C 511.453125 34.007812 511.738281 28.800781 511.5625 23.613281 C 511.070312 21.167969 511.851562 16.921875 509.394531 15.566406 C 509.121094 15.4375 508.851562 15.355469 508.5625 15.324219 C 504.21875 13.871094 499.460938 14.113281 494.957031 13.359375 C 491.621094 13.074219 480.460938 10.824219 478.785156 13.761719 C 478.785156 13.761719 478.769531 13.792969 478.753906 13.808594 C 478.511719 14 478.273438 14.222656 478.050781 14.480469 C 476.675781 17.511719 475.191406 20.449219 472.75 22.78125 C 468.964844 26.46875 463.375 27.1875 461.332031 21.390625 C 460.101562 18.773438 462.113281 15.054688 459.433594 13.121094 C 458.332031 12.417969 457.003906 12.59375 455.777344 12.324219 C 452.328125 11.683594 448.828125 11.222656 445.300781 11.253906 C 442.667969 11.589844 437.492188 10.34375 435.609375 12.640625 C 434.988281 13.027344 434.410156 13.632812 433.949219 14.542969 C 427.800781 24.457031 417.453125 29.328125 411.195312 16.363281 C 410.0625 14.382812 411.242188 11.683594 409.421875 10.070312 C 408.785156 9.464844 407.875 9.273438 407.027344 9.257812 C 404.027344 8.953125 400.671875 8.746094 397.59375 8.792969 C 395.355469 9.113281 390.980469 8.441406 388.234375 9.335938 C 386.097656 9.035156 384.433594 11.363281 383.207031 13.042969 C 381.832031 14.6875 380.410156 16.316406 378.78125 17.71875 C 376.277344 19.765625 372.921875 21.25 369.648438 20.914062 C 368.277344 20.546875 367.542969 19.140625 366.742188 18.085938 C 364.890625 15.722656 365.753906 11.429688 362.449219 10.359375 C 357.835938 9.703125 353.15625 9.226562 348.492188 9.035156 C 330.929688 8.042969 340.269531 15.707031 325.324219 22.175781 C 317.675781 24.730469 313.652344 19.15625 311.128906 12.753906 C 311.097656 12.691406 311.050781 12.625 311.019531 12.546875 C 311.128906 11.605469 310.746094 10.613281 309.675781 9.894531 C 307.808594 8.601562 305.367188 8.9375 303.226562 8.476562 C 299.953125 8.027344 296.632812 7.835938 293.328125 7.949219 C 289.640625 7.835938 288.265625 9.304688 286.703125 12.417969 C 283.078125 16.667969 279.019531 23.210938 272.632812 22.398438 C 268.117188 22.285156 265.113281 17.382812 264.746094 13.28125 C 264.96875 8.347656 261.3125 9.035156 257.578125 8.828125 C 252.738281 8.554688 247.871094 8.425781 243.0625 9.050781 C 242.167969 9.160156 241.082031 9.210938 240.285156 9.6875 C 239.054688 10.023438 237.90625 11.046875 237.394531 12.898438 C 235.078125 17.066406 231.40625 21.28125 226.648438 22.527344 C 218.664062 23.964844 213.1875 19.746094 211.734375 11.90625 C 210.714844 9.003906 207.34375 9.847656 204.964844 9.769531 C 200.925781 9.671875 196.902344 10.054688 192.894531 10.453125 C 192.050781 10.535156 191.105469 10.582031 190.292969 10.902344 C 189.636719 10.886719 188.953125 11.078125 188.359375 11.558594 C 185.789062 14.03125 183.859375 17.144531 181.191406 19.554688 C 177.039062 22.925781 171.785156 25.113281 169.3125 18.710938 C 167.875 15.820312 168.433594 11.492188 165.207031 9.785156 C 160.722656 9.210938 156.089844 9.003906 151.523438 8.808594 C 148.730469 9.035156 143.398438 8.347656 140.539062 9.945312 C 139.597656 9.894531 138.605469 10.261719 137.871094 11.222656 C 134.550781 15.039062 131.199219 19.523438 126.265625 21.296875 C 123.359375 21.953125 119.796875 22.796875 117.195312 20.882812 C 113.683594 18.582031 112.757812 14.175781 110.296875 10.996094 C 109.292969 9.496094 107.566406 9.371094 105.921875 9.371094 C 104.199219 9.417969 102.457031 9.320312 100.734375 9.273438 C 97.875 9.226562 95 9.433594 92.144531 9.449219 C 90.449219 9.578125 88.453125 9.304688 86.761719 9.769531 C 85.453125 9.703125 84.015625 10.503906 83.105469 12.59375 C 82.707031 13.328125 81.957031 14.382812 81.332031 15.070312 C 79.003906 17.433594 76.878906 20.355469 73.78125 21.742188 C 68.433594 23.210938 62.011719 22.109375 58.546875 17.464844 C 55.945312 15.308594 56.824219 10.296875 53.054688 9.5625 C 42.535156 9.019531 31.867188 8.714844 21.363281 10.085938 C 18.984375 10.742188 14.113281 10.183594 12.804688 12.386719 C 12.722656 12.515625 12.660156 12.660156 12.597656 12.800781 C 12.5 12.976562 12.402344 13.167969 12.324219 13.378906 C 10.535156 20.640625 11.75 28.320312 11.046875 35.730469 C 10.917969 38.507812 11.414062 41.253906 11.703125 44 C 11.988281 46.207031 12.148438 48.617188 13.570312 50.421875 C 14.671875 51.875 16.585938 51.554688 17.785156 52.847656 C 22.253906 55.769531 27.15625 60.527344 27.140625 66.355469 C 26.902344 70.011719 24.8125 73.75 21.347656 75.203125 C 19.238281 76.207031 16.554688 76.238281 14.800781 77.835938 C 13.777344 79.257812 13.96875 81.078125 13.824219 82.738281 C 13.699219 84.957031 13.523438 87.160156 13.410156 89.378906 C 13.570312 91.679688 12.898438 96.644531 13.839844 99.742188 C 13.457031 102.058594 15.980469 103.671875 18.089844 104.308594 C 23.597656 106.335938 32.089844 113.234375 31.851562 119.605469 C 31.390625 121.9375 29.378906 123.515625 27.667969 125.003906 C 24.15625 127.84375 19.765625 128.914062 15.359375 129.074219 C 12.148438 129.617188 12.277344 133.144531 12.117188 135.683594 C 11.78125 139.5625 11.574219 143.445312 11.527344 147.339844 C 11.492188 150.101562 11.527344 152.863281 11.527344 155.628906 C 11.84375 158.613281 10.792969 162.558594 13.347656 164.746094 C 18.808594 168.71875 30.988281 176.320312 29.089844 184.191406 C 27.925781 187.703125 24.699219 191.28125 20.738281 191.167969 C 19.269531 191.058594 18.28125 191.457031 17.707031 192.078125 C 14.382812 193.179688 15.199219 198.53125 14.625 201.484375 C 14.242188 206.671875 13.601562 211.847656 13.234375 217.035156 C 12.835938 220.613281 14.542969 222.910156 17.882812 223.996094 C 20.769531 225.769531 23.46875 227.878906 25.929688 230.207031 C 34.152344 238.847656 29.027344 246.0625 18.824219 248.632812 C 15.582031 249.019531 14.144531 251.140625 14.558594 254.351562 C 14.527344 256.492188 14.449219 258.628906 14.496094 260.769531 C 14.957031 268.832031 14.289062 277.28125 16.507812 285.085938 C 16.585938 285.199219 16.683594 285.3125 16.777344 285.40625 C 17.113281 286.460938 17.960938 287.386719 18.964844 287.945312 C 21.730469 290.148438 24.460938 292.480469 26.742188 295.195312 C 30.636719 300.257812 32.808594 307.1875 31.132812 313.492188 C 29.359375 317.5625 24.890625 319.320312 21.089844 320.996094 C 16.667969 322.546875 18.726562 326.21875 18.503906 329.730469 C 18.695312 339.296875 19.316406 348.652344 21.21875 358.105469 C 21.1875 358.214844 21.171875 358.34375 21.152344 358.472656 C 21.011719 360.164062 22.304688 361.632812 23.980469 361.824219 C 28.625 362.238281 33.289062 362.367188 37.953125 362.238281 C 43.78125 362.558594 49.625 362.6875 55.46875 362.71875 C 62.03125 362.222656 68.65625 362.796875 75.1875 362.160156 C 78.234375 361.664062 78.8125 359.652344 78.953125 356.9375 C 80.023438 354.242188 82.453125 351.957031 85.261719 351.191406 C 88.296875 350.566406 91.617188 352.085938 93.722656 354.242188 C 95.449219 356.253906 95.464844 359.109375 96.871094 361.25 C 97.90625 362.382812 99.265625 362.207031 100.71875 362.671875 C 106.339844 363.882812 112.117188 364.332031 117.851562 364.683594 C 120.882812 364.90625 123.917969 364.636719 126.933594 364.570312 C 129.425781 364.523438 134.152344 364.445312 134.359375 361.425781 C 136.195312 357.515625 137.730469 355.152344 141.816406 353.027344 C 145.21875 350.519531 150.136719 351.621094 151.765625 355.628906 C 153.007812 358.007812 150.980469 361.554688 153.917969 363.007812 C 159.222656 364.140625 164.824219 363.707031 170.222656 364.476562 C 174.070312 364.445312 181.671875 366.199219 183.890625 362.289062 C 185.628906 357.6875 191.011719 352.515625 196.25 353.570312 C 202.859375 357.019531 199.761719 364.699219 204.613281 364.523438 C 212.3125 365.355469 220.039062 366.089844 227.800781 365.878906 C 228.214844 365.929688 228.597656 365.878906 228.949219 365.785156 C 230.144531 365.496094 231.328125 364.636719 232.046875 363.183594 C 235.191406 359.335938 238.128906 354.800781 243.015625 353.058594 C 247.246094 351.238281 253.28125 352.421875 256.09375 356.171875 C 257.144531 358.074219 257.210938 360.324219 257.257812 362.449219 C 257.144531 363.726562 257.402344 365.113281 258.421875 365.976562 C 259.78125 367.253906 261.695312 366.726562 263.375 366.824219 Z M 267.140625 360.277344 C 266.085938 360.242188 265.019531 360.210938 263.964844 360.195312 C 263.996094 349.449219 252.867188 343.972656 243.320312 345.953125 C 237.507812 347.40625 232.78125 351.300781 229.285156 356.058594 C 228.199219 357.625 226.601562 359.015625 225.691406 360.722656 C 225.386719 360.722656 225.070312 360.722656 224.765625 360.675781 C 218.875 360.691406 212.964844 360.308594 207.136719 359.351562 C 206.195312 353.265625 201.023438 346.671875 194.394531 347.007812 C 187.59375 347.375 181.335938 351.972656 178.558594 358.136719 C 171.976562 358.773438 165.464844 357.289062 158.902344 357.304688 C 158.820312 350.183594 151.828125 344.292969 144.820312 344.980469 C 137.679688 346.351562 130.304688 351.703125 128.5625 359.015625 C 127.542969 359.0625 126.503906 359.0625 125.484375 359.09375 C 117.484375 359.476562 109.46875 358.550781 101.597656 357.242188 C 100.558594 349.289062 92.429688 343.75 84.671875 344.53125 C 78.96875 345.539062 73.398438 350.359375 72.457031 356.1875 C 63.273438 356.601562 54.109375 356.714844 44.929688 356.425781 C 39.820312 356.078125 34.695312 356.140625 29.585938 355.902344 C 28.59375 355.949219 27.382812 355.789062 26.167969 355.710938 C 25.625 352.753906 25.496094 349.707031 25.019531 346.734375 C 24.25 340.15625 24.363281 333.53125 24.140625 326.921875 C 30.445312 324.71875 37.042969 320.246094 38.175781 313.1875 C 39.339844 304.871094 36.609375 296.199219 31.070312 289.910156 C 28.339844 287.019531 25.355469 284.351562 22.160156 281.972656 C 21.886719 281.75 21.585938 281.589844 21.28125 281.480469 C 21.136719 280.472656 20.945312 279.46875 20.914062 278.667969 C 20.242188 270.828125 20.179688 263.003906 20.484375 255.132812 C 31.261719 252.578125 40.074219 244.324219 35.554688 232.652344 C 32.585938 225.851562 26.261719 221.074219 19.941406 217.546875 C 20.371094 211.832031 21.058594 206.128906 21.488281 200.398438 C 21.601562 199.3125 21.839844 197.921875 21.90625 196.582031 C 27.925781 196.292969 33.019531 191.378906 34.996094 185.898438 C 37.710938 174.5 26.902344 165.574219 18.28125 160.195312 C 18.023438 151.988281 17.976562 143.761719 18.855469 135.589844 C 27.09375 134.726562 37.394531 128.800781 38.589844 119.957031 C 39.070312 110.296875 28.625 101.164062 20.261719 98.019531 C 19.78125 97.746094 19.253906 97.523438 18.710938 97.347656 C 18.375 92.367188 18.871094 87.367188 19.160156 82.386719 C 27.636719 81.605469 34.199219 73.605469 33.625 65.15625 C 32.683594 56.648438 26.472656 48.933594 18.375 46.125 C 17.863281 43.1875 17.371094 40.21875 17.164062 37.230469 C 17.800781 32.058594 17.753906 27.394531 17.753906 22.078125 C 17.671875 20.097656 17.976562 18.039062 18.089844 16.011719 C 21.027344 15.644531 23.996094 15.355469 26.949219 15.246094 C 34.261719 14.71875 42.390625 14.957031 49.910156 15.453125 C 53.121094 26.726562 66.691406 32.027344 77.183594 27.652344 C 81.398438 25.304688 86.410156 20.304688 88.648438 16.042969 C 88.949219 15.597656 89.171875 15.164062 89.332031 14.734375 C 94.824219 14.734375 100.320312 14.351562 105.796875 14.847656 C 110.25 27.1875 117.691406 31.210938 130.289062 26.851562 C 135.652344 24.394531 139.773438 19.621094 143.332031 15.039062 C 143.347656 15.003906 143.367188 14.957031 143.398438 14.925781 C 144.179688 14.78125 144.960938 14.65625 145.695312 14.71875 C 150.933594 14.414062 156.140625 15.054688 161.34375 15.421875 C 163.46875 28.097656 172.632812 33.992188 183.84375 26.007812 C 187.386719 23.246094 190.402344 19.699219 192.957031 16.027344 C 197.238281 15.804688 201.515625 15.660156 205.8125 15.722656 C 207.648438 24.921875 217.339844 30.941406 226.425781 29.390625 C 234.441406 28.433594 240.699219 21.601562 244.003906 14.621094 C 244.054688 14.511719 244.070312 14.398438 244.117188 14.285156 C 244.230469 14.285156 244.339844 14.285156 244.453125 14.285156 C 249.128906 13.855469 253.855469 14.238281 258.519531 14.671875 C 258.773438 23.210938 266.949219 30.253906 275.460938 29.054688 C 283.523438 28.128906 289.128906 20.882812 292.960938 14.335938 C 297.269531 14.113281 301.503906 14.972656 305.765625 15.390625 C 305.84375 15.613281 305.925781 15.835938 306.003906 16.058594 C 306.820312 20.945312 310.042969 25.046875 314.210938 27.621094 C 324.445312 33.527344 337.253906 25.222656 342.027344 15.773438 C 347.664062 15.324219 353.332031 16.15625 358.9375 16.730469 C 360.292969 21.617188 363.695312 26.980469 369.121094 27.699219 C 375.382812 28.226562 381.527344 25.082031 385.648438 20.5 C 386.910156 18.886719 389.449219 16.699219 390.519531 14.496094 C 391.285156 14.429688 392.066406 14.398438 392.832031 14.445312 C 396.507812 14.511719 400.386719 14.269531 404.089844 14.765625 C 404.808594 22.589844 411.578125 29.964844 419.433594 30.988281 C 428.007812 31.804688 435.496094 24.984375 439.664062 18.085938 C 439.953125 17.671875 440.175781 17.242188 440.320312 16.84375 C 441.292969 16.84375 442.332031 16.890625 443.371094 16.890625 C 446.675781 16.984375 450.824219 17.035156 454.226562 17.703125 C 453.765625 22.253906 455.839844 26.742188 459.160156 29.792969 C 468.023438 37.246094 480.171875 27.84375 483.382812 18.804688 C 483.558594 18.46875 483.6875 18.121094 483.765625 17.785156 C 488.171875 18.070312 492.5625 18.695312 496.921875 19.347656 C 499.972656 19.507812 502.972656 20.402344 506.007812 20.578125 C 506.503906 27.8125 506.054688 35.109375 505.289062 42.308594 C 505.226562 42.546875 505.175781 42.804688 505.128906 43.058594 C 497.128906 44.960938 490.664062 52.765625 490.871094 61.070312 C 491.335938 71.542969 498.679688 77.546875 507.222656 82.257812 C 507.683594 90.496094 507.414062 98.785156 506.773438 107.023438 C 491.683594 111.878906 488.699219 129.410156 495.996094 142.070312 C 498.566406 146.238281 502.621094 149.175781 506.917969 151.410156 C 507.554688 158.933594 507.238281 166.546875 506.664062 174.070312 C 498.167969 175.96875 490.265625 183.503906 489.164062 192.320312 C 488.621094 198.355469 490.566406 204.644531 495.246094 208.667969 C 497.433594 210.441406 502.351562 214.351562 506.183594 215.550781 C 506.535156 222.945312 505.738281 230.398438 505.496094 237.808594 C 499.8125 237.953125 494.480469 241.753906 491.910156 246.71875 C 486.417969 258.46875 495.597656 268.304688 505.910156 272.839844 C 506.183594 281.765625 506.214844 290.851562 505.289062 299.839844 C 494.449219 299.519531 487.964844 314.609375 493.121094 323.328125 C 495.515625 328.148438 501.121094 332.414062 506.375 334.25 C 506.375 335.351562 506.390625 336.4375 506.152344 337.300781 C 505.257812 343.636719 505.417969 350.058594 504.316406 356.347656 C 504.203125 356.652344 504.140625 356.96875 504.074219 357.273438 C 494.382812 358.421875 484.5 358.855469 474.726562 359.300781 C 473.339844 353.203125 470.609375 346.480469 464.285156 344.148438 C 453.9375 340.683594 442.828125 348.605469 439.171875 358.167969 C 432.128906 359.191406 425.214844 358.214844 418.046875 358.359375 C 415.875 349.402344 407.652344 345.1875 398.980469 347.886719 C 393.199219 349.273438 388.824219 353.714844 387.085938 359.300781 C 387.023438 359.300781 386.957031 359.300781 386.894531 359.300781 C 380.011719 360.101562 373.097656 359.222656 366.21875 359 C 365.464844 350.390625 357.785156 342.027344 348.699219 343.476562 C 342.296875 344.773438 334.890625 352.246094 332.511719 358.183594 C 326.171875 359.09375 319.703125 359 313.316406 358.855469 C 312.582031 351.605469 306.929688 345.746094 299.84375 344.339844 C 294.859375 343.320312 290.007812 346.015625 286.109375 348.859375 C 282.167969 351.527344 279.421875 355.535156 277.566406 359.859375 C 274.101562 360.195312 270.621094 360.277344 267.15625 360.226562 Z M 267.140625 360.277344 " fill-opacity="1" fill-rule="nonzero"/></g><g transform="matrix(1, 0, 0, 1, 129, 0)"><g clip-path="url(#21cc2132a5)"><g fill="#7f2241" fill-opacity="1"><g transform="translate(19.810713, 305.366312)"><g><path d="M 61.125 -78.1875 C 60.363281 -72.332031 57.601562 -68.515625 52.84375 -66.734375 C 48.09375 -64.953125 46.546875 -67.285156 48.203125 -73.734375 C 49.859375 -80.191406 46.945312 -81.828125 39.46875 -78.640625 C 32 -75.453125 25.847656 -71.441406 21.015625 -66.609375 C 13.546875 -58.960938 6.921875 -50.722656 1.140625 -41.890625 C 0.546875 -41.128906 0.0820312 -40.492188 -0.25 -39.984375 C -1.945312 -37.523438 -3.644531 -35.191406 -5.34375 -32.984375 C -6.445312 -31.453125 -7.742188 -30.492188 -9.234375 -30.109375 C -10.722656 -29.734375 -12.226562 -29.671875 -13.75 -29.921875 C -15.195312 -30.097656 -16.300781 -30.648438 -17.0625 -31.578125 C -17.832031 -32.515625 -17.914062 -33.617188 -17.3125 -34.890625 C -16.382812 -37.179688 -15.285156 -39.515625 -14.015625 -41.890625 C -6.367188 -56.078125 1.398438 -70.300781 9.296875 -84.5625 C 9.460938 -84.726562 9.546875 -84.894531 9.546875 -85.0625 C 10.648438 -87.269531 11.96875 -89.3125 13.5 -91.1875 C 15.195312 -93.050781 17.148438 -93.8125 19.359375 -93.46875 C 21.566406 -93.132812 23.050781 -91.820312 23.8125 -89.53125 C 24.75 -86.550781 25.554688 -84.867188 26.234375 -84.484375 C 26.910156 -84.109375 28.4375 -84.390625 30.8125 -85.328125 C 35.90625 -87.191406 40.875 -88.503906 45.71875 -89.265625 C 50.5625 -90.035156 54.53125 -89.847656 57.625 -88.703125 C 60.726562 -87.554688 61.894531 -84.050781 61.125 -78.1875 Z M 61.125 -78.1875 "/></g></g></g><g fill="#3f4c84" fill-opacity="1"><g transform="translate(83.497894, 305.366312)"><g><path d="M 65.203125 -202.234375 C 65.628906 -202.910156 66.539062 -203.484375 67.9375 -203.953125 C 69.34375 -204.421875 70.785156 -204.757812 72.265625 -204.96875 C 73.753906 -205.175781 75.050781 -205.128906 76.15625 -204.828125 C 77.257812 -204.535156 77.726562 -204.007812 77.5625 -203.25 C 76.625 -199.34375 75.222656 -195.519531 73.359375 -191.78125 C 73.179688 -191.28125 72.882812 -190.644531 72.46875 -189.875 C 65.414062 -173.570312 58.238281 -157.398438 50.9375 -141.359375 C 49.832031 -138.984375 48.816406 -136.648438 47.890625 -134.359375 C 45.253906 -128.921875 41.984375 -122.296875 38.078125 -114.484375 C 33.742188 -106.253906 30.007812 -98.695312 26.875 -91.8125 C 29.84375 -95.382812 33.578125 -98 38.078125 -99.65625 C 42.578125 -101.3125 46.015625 -102.140625 48.390625 -102.140625 C 57.390625 -101.960938 62.359375 -97.503906 63.296875 -88.765625 C 64.734375 -78.828125 62.945312 -68.722656 57.9375 -58.453125 C 52.9375 -48.179688 46.316406 -39.773438 38.078125 -33.234375 C 31.117188 -29.328125 24.519531 -27.609375 18.28125 -28.078125 C 12.039062 -28.546875 6.5 -31.582031 1.65625 -37.1875 C 1.0625 -37.1875 0.445312 -36.910156 -0.1875 -36.359375 C -0.820312 -35.804688 -1.523438 -35.148438 -2.296875 -34.390625 C -3.222656 -33.285156 -4.238281 -32.4375 -5.34375 -31.84375 C -6.113281 -31.5 -6.921875 -31.410156 -7.765625 -31.578125 C -8.617188 -31.753906 -9.300781 -32.007812 -9.8125 -32.34375 C -11.675781 -33.875 -12.269531 -35.742188 -11.59375 -37.953125 C -4.457031 -56.628906 3.925781 -76.066406 13.5625 -96.265625 C 23.195312 -116.472656 32.851562 -136.171875 42.53125 -155.359375 C 46.601562 -163.941406 50.640625 -172.265625 54.640625 -180.328125 C 56.242188 -183.472656 57.8125 -186.742188 59.34375 -190.140625 C 61.207031 -194.035156 63.160156 -198.066406 65.203125 -202.234375 Z M 33.234375 -86.71875 C 26.703125 -82.050781 21.054688 -76.363281 16.296875 -69.65625 C 11.546875 -62.945312 9.847656 -55.859375 11.203125 -48.390625 C 11.878906 -44.054688 13.617188 -41 16.421875 -39.21875 C 19.222656 -37.4375 22.492188 -38.078125 26.234375 -41.140625 C 29.972656 -44.617188 33.707031 -48.988281 37.4375 -54.25 C 41.175781 -59.507812 44.191406 -65.113281 46.484375 -71.0625 C 48.347656 -76.320312 49.472656 -80.90625 49.859375 -84.8125 C 50.242188 -88.71875 49.203125 -91.09375 46.734375 -91.9375 C 44.273438 -92.789062 39.773438 -91.050781 33.234375 -86.71875 Z M 33.234375 -86.71875 "/></g></g></g><g fill="#586834" fill-opacity="1"><g transform="translate(154.053126, 305.366312)"><g><path d="M 79.59375 -61.515625 C 68.21875 -48.097656 57.070312 -38.203125 46.15625 -31.828125 C 35.25 -25.460938 23.578125 -23.363281 11.140625 -25.53125 C -1.296875 -27.695312 -6.410156 -36.039062 -4.203125 -50.5625 C -2.671875 -57.863281 -0.59375 -64.992188 2.03125 -71.953125 C 8.570312 -88.171875 15.195312 -104.300781 21.90625 -120.34375 C 24.113281 -126.113281 26.445312 -131.929688 28.90625 -137.796875 C 29.5 -139.066406 30.050781 -140.335938 30.5625 -141.609375 C 31.5 -143.734375 32.429688 -145.898438 33.359375 -148.109375 C 34.722656 -151.847656 33.238281 -153.800781 28.90625 -153.96875 C 26.445312 -153.96875 24.03125 -153.96875 21.65625 -153.96875 C 20.550781 -153.96875 19.316406 -153.96875 17.953125 -153.96875 C 16.679688 -153.800781 15.367188 -153.628906 14.015625 -153.453125 C 11.804688 -153.285156 9.617188 -153.203125 7.453125 -153.203125 C 5.285156 -153.203125 3.269531 -153.753906 1.40625 -154.859375 C 0.894531 -155.023438 0.488281 -155.34375 0.1875 -155.8125 C -0.101562 -156.28125 -0.25 -156.8125 -0.25 -157.40625 C -0.0820312 -157.738281 0.1875 -158.140625 0.5625 -158.609375 C 0.945312 -159.078125 1.4375 -159.394531 2.03125 -159.5625 C 3.90625 -160.332031 5.859375 -160.882812 7.890625 -161.21875 C 13.160156 -161.476562 18.382812 -161.691406 23.5625 -161.859375 C 25.59375 -161.859375 27.375 -161.859375 28.90625 -161.859375 C 32.300781 -161.859375 34.828125 -161.984375 36.484375 -162.234375 C 38.140625 -162.492188 39.476562 -163.382812 40.5 -164.90625 C 41.519531 -166.4375 42.707031 -168.773438 44.0625 -171.921875 C 44.820312 -173.617188 45.753906 -175.488281 46.859375 -177.53125 C 49.660156 -183.46875 52.460938 -189.535156 55.265625 -195.734375 C 56.546875 -198.535156 57.863281 -201.253906 59.21875 -203.890625 C 60.320312 -206.515625 62.0625 -208.550781 64.4375 -210 C 66.726562 -211.101562 68.722656 -211.019531 70.421875 -209.75 C 70.929688 -209.40625 71.332031 -208.847656 71.625 -208.078125 C 71.925781 -207.316406 72.078125 -206.640625 72.078125 -206.046875 C 72.078125 -202.734375 71.226562 -199.46875 69.53125 -196.25 C 69.195312 -195.570312 68.816406 -194.765625 68.390625 -193.828125 C 67.285156 -190.765625 66.097656 -187.664062 64.828125 -184.53125 C 62.359375 -178.757812 60.019531 -172.859375 57.8125 -166.828125 C 57.21875 -165.722656 57.195312 -164.742188 57.75 -163.890625 C 58.300781 -163.046875 59.128906 -162.625 60.234375 -162.625 C 66.265625 -162.457031 72.164062 -162.375 77.9375 -162.375 C 80.90625 -162.375 83.878906 -162.375 86.859375 -162.375 C 96.191406 -162.195312 99.925781 -160.878906 98.0625 -158.421875 C 96.789062 -156.984375 95.410156 -156.15625 93.921875 -155.9375 C 92.429688 -155.726562 90.925781 -155.75 89.40625 -156 C 88.46875 -156 87.53125 -156 86.59375 -156 C 77.082031 -155.40625 67.660156 -155.023438 58.328125 -154.859375 C 53.992188 -154.859375 51.109375 -152.90625 49.671875 -149 C 48.140625 -145.257812 46.648438 -141.523438 45.203125 -137.796875 C 43.085938 -132.867188 41.09375 -128.070312 39.21875 -123.40625 C 37.351562 -118.988281 35.488281 -114.53125 33.625 -110.03125 C 28.78125 -98.65625 24.109375 -87.234375 19.609375 -75.765625 C 16.804688 -68.296875 14.597656 -60.65625 12.984375 -52.84375 C 9.421875 -38.664062 14.898438 -33.234375 29.421875 -36.546875 C 43.679688 -39.941406 58.625 -50.21875 74.25 -67.375 C 81.039062 -71.695312 82.820312 -69.742188 79.59375 -61.515625 Z M 79.59375 -61.515625 "/></g></g></g><g fill="#30125b" fill-opacity="1"><g transform="translate(226.390324, 305.366312)"><g><path d="M 24.328125 -30.1875 C 31.285156 -30.1875 33.742188 -26.832031 31.703125 -20.125 C 30.773438 -17.488281 29.71875 -15.023438 28.53125 -12.734375 C 27.425781 -10.691406 25.851562 -9.351562 23.8125 -8.71875 C 21.78125 -8.082031 19.613281 -8.234375 17.3125 -9.171875 C 15.445312 -9.929688 14.429688 -11.242188 14.265625 -13.109375 C 14.097656 -16.085938 14.179688 -19.144531 14.515625 -22.28125 C 15.109375 -27.882812 18.378906 -30.519531 24.328125 -30.1875 Z M 24.328125 -30.1875 "/></g></g></g></g></g></svg>